<svg width="95" height="95" viewBox="0 0 95 95" fill="none" xmlns="http://www.w3.org/2000/svg">
    <path d="M5.5 22.5H0.5V89H31L39.5 94H54.5L62 89H94V28H88V83L62 83.5L51.5 88H42L32 83.5L5.5 83V22.5Z" fill="#6C5DD4"/>
    <path d="M11 77.5V12H17V67.5H28.5C33.3966 68.0141 35.6195 69.6735 38.5 75.5V80L32 77.5H11Z" fill="#6C5DD4"/>
    <path d="M22 61V1H27.5C38.1888 4.50265 41.4941 8.6963 44 19C44 19 44.5 77 44 76.5C43.5 76 40.1182 65.2078 29.5 61H22Z" fill="#6C5DD4"/>
    <path d="M62 17C55.5 17.5 54.0762 18.2971 50 21.5V83C55.0738 78.9025 57.6792 77.8093 62 77.5H82.5V16.5L62 17Z" fill="#6C5DD4"/>
    <path d="M5.5 22.5H0.5V89H31L39.5 94H54.5L62 89H94V28H88V83L62 83.5L51.5 88H42L32 83.5L5.5 83V22.5Z" stroke="#6C5DD4"/>
    <path d="M11 77.5V12H17V67.5H28.5C33.3966 68.0141 35.6195 69.6735 38.5 75.5V80L32 77.5H11Z" stroke="#6C5DD4"/>
    <path d="M22 61V1H27.5C38.1888 4.50265 41.4941 8.6963 44 19C44 19 44.5 77 44 76.5C43.5 76 40.1182 65.2078 29.5 61H22Z" stroke="#6C5DD4"/>
    <path d="M62 17C55.5 17.5 54.0762 18.2971 50 21.5V83C55.0738 78.9025 57.6792 77.8093 62 77.5H82.5V16.5L62 17Z" stroke="#6C5DD4"/>
</svg>
