<svg width="67" height="50" viewBox="0 0 67 50" fill="none" xmlns="http://www.w3.org/2000/svg">
    <ellipse cx="4.08497" cy="45.915" rx="4.08497" ry="4.08497" transform="rotate(-90 4.08497 45.915)" fill="#D3CCFF"/>
    <ellipse cx="4.08497" cy="25" rx="4.08497" ry="4.08497" transform="rotate(-90 4.08497 25)" fill="#D3CCFF"/>
    <ellipse cx="4.08497" cy="4.08496" rx="4.08497" ry="4.08497" transform="rotate(-90 4.08497 4.08496)" fill="#D3CCFF"/>
    <ellipse cx="23.6929" cy="45.915" rx="4.08497" ry="4.08497" transform="rotate(-90 23.6929 45.915)" fill="#D3CCFF"/>
    <ellipse cx="23.6929" cy="25" rx="4.08497" ry="4.08497" transform="rotate(-90 23.6929 25)" fill="#D3CCFF"/>
    <ellipse cx="23.6929" cy="4.08496" rx="4.08497" ry="4.08497" transform="rotate(-90 23.6929 4.08496)" fill="#D3CCFF"/>
    <ellipse cx="43.3005" cy="45.915" rx="4.08497" ry="4.08497" transform="rotate(-90 43.3005 45.915)" fill="#D3CCFF"/>
    <circle cx="43.3005" cy="25" r="4.08497" transform="rotate(-90 43.3005 25)" fill="#D3CCFF"/>
    <circle cx="43.3005" cy="4.08496" r="4.08497" transform="rotate(-90 43.3005 4.08496)" fill="#D3CCFF"/>
    <ellipse cx="62.9085" cy="45.915" rx="4.08497" ry="4.08497" transform="rotate(-90 62.9085 45.915)" fill="#D3CCFF"/>
    <ellipse cx="62.9085" cy="25" rx="4.08497" ry="4.08497" transform="rotate(-90 62.9085 25)" fill="#D3CCFF"/>
    <ellipse cx="62.9085" cy="4.08496" rx="4.08497" ry="4.08497" transform="rotate(-90 62.9085 4.08496)" fill="#D3CCFF"/>
</svg>
