<svg width="90" height="66" viewBox="0 0 90 66" fill="none" xmlns="http://www.w3.org/2000/svg">
    <circle cx="45.5" cy="15" r="14.5" fill="#6C5DD4" stroke="#6C5DD4"/>
    <path d="M64.7268 36H25.278C24.7776 36 24.2954 36.1876 23.9265 36.5257L19.1486 40.9055C18.7353 41.2843 18.5 41.8192 18.5 42.3798V62.3333C18.5 62.7661 18.6404 63.1871 18.9 63.5333L19.4 64.2C19.7777 64.7036 20.3705 65 21 65H67.7984C68.2526 65 68.6932 64.8454 69.0478 64.5617L70.2494 63.6005C70.7238 63.2209 71 62.6463 71 62.0387V41.8847C71 41.3212 70.7623 40.7839 70.3453 40.4049L66.0721 36.5201C65.704 36.1854 65.2243 36 64.7268 36Z" fill="#6C5DD4" stroke="#6C5DD4"/>
    <path d="M16 60.5V41C16 39.8954 15.1046 39 14 39H7.82843C7.29799 39 6.78929 39.2107 6.41421 39.5858L1.58579 44.4142C1.21071 44.7893 1 45.298 1 45.8284V59.8333C1 60.2661 1.14036 60.6871 1.4 61.0333L1.9 61.7C2.27771 62.2036 2.87049 62.5 3.5 62.5H14C15.1046 62.5 16 61.6046 16 60.5Z" fill="#6C5DD4" stroke="#6C5DD4"/>
    <path d="M74.5 60V41C74.5 39.8954 75.3954 39 76.5 39H82.6841C83.2071 39 83.7093 39.2049 84.0831 39.5707L88.8989 44.2841C89.2833 44.6603 89.5 45.1755 89.5 45.7134V59.3644C89.5 59.8042 89.355 60.2318 89.0875 60.5809L88.6004 61.2165C88.2219 61.7104 87.6351 62 87.0129 62H76.5C75.3954 62 74.5 61.1046 74.5 60Z" fill="#6C5DD4" stroke="#6C5DD4"/>
    <circle cx="72.5" cy="21" r="11.5" fill="#6C5DD4" stroke="#6C5DD4"/>
    <path d="M29.5 21C29.5 27.3513 24.3513 32.5 18 32.5C11.6487 32.5 6.5 27.3513 6.5 21C6.5 14.6487 11.6487 9.5 18 9.5C24.3513 9.5 29.5 14.6487 29.5 21Z" fill="#6C5DD4" stroke="#6C5DD4"/>
</svg>
