<svg width="70" height="70" viewBox="0 0 70 70" fill="none" xmlns="http://www.w3.org/2000/svg">
    <circle cx="35" cy="35" r="31.5" fill="white" stroke="#F1EEFF" stroke-width="7"/>
    <path d="M53.2 37C54.3045 37 55.2 36.1046 55.2 35C55.2 33.8954 54.3045 33 53.2 33V37ZM16.0857 33.5858C15.3047 34.3668 15.3047 35.6332 16.0857 36.4142L28.8137 49.1421C29.5947 49.9232 30.861 49.9232 31.6421 49.1421C32.4231 48.3611 32.4231 47.0948 31.6421 46.3137L20.3284 35L31.6421 23.6863C32.4231 22.9052 32.4231 21.6389 31.6421 20.8579C30.861 20.0768 29.5947 20.0768 28.8137 20.8579L16.0857 33.5858ZM53.2 33L17.5 33V37L53.2 37V33Z" fill="#6C5DD4"/>
</svg>
