<svg width="55" height="55" viewBox="0 0 55 55" fill="none" xmlns="http://www.w3.org/2000/svg">
    <rect width="55" height="55" rx="15" fill="#F1EEFF"/>
    <path d="M19.5 23.5H14.5V38.5H19.5V23.5Z" fill="#6C5DD4" stroke="#6C5DD4"/>
    <path d="M27.4094 17.1168L22.0554 22.7081C21.699 23.0804 21.5 23.5759 21.5 24.0913V36.5C21.5 37.6046 22.3954 38.5 23.5 38.5H35.172C35.9767 38.5 36.7031 38.0177 37.0153 37.2761L40.3432 29.3722C40.4467 29.1266 40.5 28.8627 40.5 28.5961V26.3284C40.5 25.798 40.2892 25.2893 39.9142 24.9142L39.0857 24.0858C38.7107 23.7107 38.202 23.5 37.6715 23.5H33.5C32.3954 23.5 31.5 22.6046 31.5 21.5V18.5C31.5 17.3954 30.6045 16.5 29.5 16.5H28.8539C28.3084 16.5 27.7866 16.7228 27.4094 17.1168Z" fill="#6C5DD4" stroke="#6C5DD4"/>
    <line x1="17" y1="33.5" x2="17" y2="36.5" stroke="white"/>
    <line x1="15.5" y1="35" x2="18.5" y2="35" stroke="white"/>
</svg>
