<?xml version="1.0" encoding="UTF-8" standalone="no" ?>
<!DOCTYPE svg PUBLIC "-//W3C//DTD SVG 1.1//EN" "http://www.w3.org/Graphics/SVG/1.1/DTD/svg11.dtd">
<svg xmlns="http://www.w3.org/2000/svg" xmlns:xlink="http://www.w3.org/1999/xlink" version="1.1" width="1280" height="1024" viewBox="0 0 1280 1024" xml:space="preserve">
<desc>Created with Fabric.js 4.4.0</desc>
<defs>
</defs>
<g transform="matrix(1 0 0 1 640 512)" id="background-logo"  >
<rect style="stroke: none; stroke-width: 0; stroke-dasharray: none; stroke-linecap: butt; stroke-dashoffset: 0; stroke-linejoin: miter; stroke-miterlimit: 4; fill: rgb(0,0,0); fill-rule: nonzero; opacity: 1;"  paint-order="stroke"  x="-640" y="-512" rx="0" ry="0" width="1280" height="1024" />
</g>
<g transform="matrix(3.9487525908910523 0 0 3.9487525908910523 640.0780566320792 606.2300066729441)" id="logo-logo"  >
<g style=""  paint-order="stroke"   >
		<g transform="matrix(0.357514754622262 0 0 0.35751475462226195 0 0)"  >
<path style="stroke: none; stroke-width: 1; stroke-dasharray: none; stroke-linecap: butt; stroke-dashoffset: 0; stroke-linejoin: miter; stroke-miterlimit: 4; fill: rgb(255,255,255); fill-rule: nonzero; opacity: 1;"  paint-order="stroke"  transform=" translate(-500.00000024999986, -500.74996944999987)" d="M 903.3935547 498.1497192 C 899.2843018 500.07269279999997 895.1359863 501.8222046 890.8552245999999 503.2539062 C 882.3422850999999 506.19653320000003 873.5969237999999 508.3813476 864.7497557999999 510.123352 C 847.0604246999999 513.6260375 829.0585936999998 515.7041625 810.9805907999998 517.4078369 C 774.8018798999999 520.7507324000001 738.2611083999998 522.5813598 701.6116942999998 525.8519287 C 692.4520262999998 526.7072143 683.2781981999998 527.565918 674.1027831999999 528.5614014 C 666.4333495999998 529.4489746 658.7525634999998 530.3530274 651.0797728999999 531.4066162 C 657.8401488999998 529.9464111 664.6196288999998 528.5018921000001 671.4228514999999 527.1022339 C 672.4758299999999 526.8845215 673.5293577999998 526.6678467 674.5833739999998 526.4522095 C 681.5197753999998 524.9996949 688.4768676999998 523.5575562 695.4440917999998 522.0949097 C 702.1661986999998 521.4769287 712.8329467999998 517.6118775 719.5678100999997 516.8997803 C 735.6406249999998 513.3200684 751.7285766999997 509.4618531 767.6995849999997 504.93652349999996 C 769.3896484999997 504.45819099999994 771.0787963999998 503.97259529999997 772.7666625999997 503.479065 C 787.0081176999997 499.2408448 801.1811522999997 494.458313 814.7968139999997 488.3006592 C 816.7088622999997 487.43865969999996 818.5971069999997 486.53796389999997 820.4884643999997 485.6235962 C 822.3858032999997 484.6987915 824.2785034999996 483.6940308 826.1470336999996 482.71923830000003 C 827.7880248999996 482.08331300000003 829.7550658999996 480.85992430000005 831.3757323999996 480.1798706 C 833.0983886999996 479.2710571 834.8048705999996 478.34979250000004 836.4989623999996 477.3948975 C 838.3001098999996 476.2562256 840.0365600999996 475.05120850000003 841.7528686999997 473.7845459 C 845.1876220999997 471.31756590000003 848.4338378999997 468.529541 851.4354858999997 465.6057129 C 852.8890991999997 464.0699463 854.3358764999997 462.5780029 855.6329956999997 460.9312744 C 856.9921875999997 459.3717651 858.1508179999997 457.6155395 859.2947998999997 455.9301147 C 856.3625488999998 458.55706779999997 853.3133545999997 460.96954339999996 850.0502930999997 463.0551147 C 849.1396485999998 463.6309814 848.2222901999997 464.1951904 847.2968140999998 464.7452392 C 844.9045411999998 466.1730346 842.4536744999998 467.50354 839.9309693999998 468.6995849 C 837.9907838999998 469.6401977 836.0250245999997 470.5303954 834.0418091999998 471.37676999999996 C 828.8908692999997 473.55853269999994 823.6130982999997 475.44635009999996 818.2512207999997 477.1287842 C 814.1166992999997 478.43084719999996 809.9376221999997 479.63073729999996 805.7205200999997 480.74536129999996 C 794.7868652999997 483.64416499999993 783.6638794999997 486.01654049999996 772.4608154999997 488.19488519999993 C 763.8272094999998 489.86254879999996 755.1425781999998 491.4141844999999 746.4307251999998 492.9138792999999 C 723.7877808999998 496.7990721999999 700.9496460999998 500.3366697999999 678.0769653999997 504.4692991999999 C 670.1591797999997 505.9292600999999 662.2316894999997 507.39562979999994 654.3077392999998 508.9729612999999 C 646.3870239999998 510.6005857999999 638.4583129999997 512.2435300999999 630.5513915999998 514.1025999999999 C 628.8458251999998 514.5050657999999 627.1405028999998 514.9106443999999 625.4356688999998 515.3217162 C 623.5507811999997 515.7757567 621.6667479999998 516.2396239 619.7833861999998 516.7095946 C 620.5107421999998 516.4358519 621.2310179999997 516.1514281 621.9600829999997 515.8804319999999 C 622.7367553999998 515.5900267 623.5139769999997 515.3008421999999 624.2918090999997 515.0130003999999 C 630.4995116999996 512.6874998999999 636.7392577999997 510.3889769999999 643.0130614999997 508.1391600999999 C 643.9418334999997 507.8036497999999 644.8713988999997 507.4691161999999 645.8015746999997 507.1356200999999 C 651.9259642999997 504.9161376999999 658.0789184999998 502.7165526999999 664.2433471999997 500.50567629999995 C 668.7247924999997 500.0936889999999 681.0838622999996 493.2269287 685.5737914999996 492.75225829999994 C 699.7832641999996 487.48919679999995 714.0014647999997 482.01232909999993 728.0132445999997 475.91662599999995 C 729.4930419999997 475.27313229999993 730.9713744999997 474.6231078999999 732.4474486999997 473.96582029999996 C 744.9231566999997 468.3504028 757.2548216999996 462.22656249999994 768.8278197999997 454.8327637 C 770.4515380999997 453.800293 772.0345458999997 452.7197266 773.6317748999998 451.64361579999996 C 775.2095336999997 450.53973399999995 776.8037719999998 449.4002076 778.3433837999997 448.25115969999996 C 779.4373778999998 447.82727049999994 781.1940917999998 446.26824949999997 782.2745360999998 445.81488039999994 C 783.5699462999997 444.96063239999995 784.8381346999997 444.0865478999999 786.1065673999998 443.19689939999995 C 787.5945434999998 441.93707269999993 788.9782104999998 440.59606929999995 790.3668212999997 439.22943109999994 C 793.0989379999997 436.5143431999999 795.6564941999998 433.56481929999995 797.8928832999998 430.48498529999995 C 798.9714354999998 428.89453119999996 800.0173949999997 427.3289793999999 800.9262084999998 425.66015619999996 C 801.8763427999997 424.0505371 802.6555175999998 422.30969229999994 803.3782348999998 420.62005609999994 C 801.3338622999999 423.25750729999993 799.1304321999999 425.73156729999994 796.7070922999998 427.96057119999995 C 796.0314330999997 428.57617179999994 795.3454589999998 429.18194569999997 794.6481322999998 429.77606189999995 C 792.8481444999998 431.32257069999997 790.9648436999998 432.78576649999997 789.0067137999998 434.14526359999996 C 787.5000609999998 435.20599359999994 785.9603880999998 436.22479239999996 784.4010618999998 437.2080688 C 780.3245237999998 439.7365112 776.0962522999998 442.0256958 771.7527464999998 444.13415519999995 C 768.4025877999999 445.7643431999999 764.9874266999998 447.30035389999995 761.5153196999998 448.7532348 C 752.5308225999999 452.5355224 743.2961424999999 455.85522449999996 733.9409788999999 458.98199459999995 C 726.7268064999998 461.38842769999997 719.4384764999999 463.6795043999999 712.1181639999999 465.92016599999994 C 693.0892332999998 471.71887209999994 673.8218993999999 477.1831664999999 654.5421751999999 483.08666989999995 C 647.8662718999999 485.15130609999994 641.1851805999999 487.22534179999997 634.5126341999999 489.38452149999995 C 627.8405150999998 491.57867429999993 621.1691893999998 493.79418949999996 614.5236204999999 496.17102049999994 C 613.0883787999999 496.68615719999997 611.6538084999999 497.2042235999999 610.2200926999999 497.7268065999999 C 605.0126951999999 499.6234129999999 599.8135985999999 501.5748900999999 594.6397093999999 503.6585692999999 C 591.338684 504.9909667999999 588.0421751999999 506.3265990999999 584.7617796999999 507.7415160999999 C 582.5153197 508.7128295999999 580.2762449999999 509.7079467999999 578.0414427999999 510.71856689999987 C 578.2100218999999 510.61224369999985 578.3751219999999 510.5018310999999 578.5438231999999 510.39569089999986 C 579.0770873999999 510.06195069999984 579.6109007999999 509.72888179999984 580.1453247 509.39654539999987 C 585.4946898999999 506.06976319999984 590.8981934 502.7812499999999 596.3870238999999 499.5990599999999 C 597.0567015999999 499.2075804999999 597.7270507999999 498.8171385999999 598.3981322999999 498.4277342999999 C 603.7572631999999 495.30267329999987 609.1584472 492.2144163999999 614.6032714999999 489.17608639999986 C 615.4078979999999 488.7227172999999 616.2134399999999 488.27038569999985 617.0198363999999 487.81896969999985 C 622.3320922999999 484.8325194999999 627.6809081999999 481.87561029999983 633.0426634999999 478.91644279999986 C 635.2833250999998 478.71044909999983 649.3347777999999 468.84204089999986 651.5797117999999 468.60467519999986 C 663.9258421999999 461.6582640999999 676.2742919 454.5628050999999 688.3269651999999 446.89672839999986 C 689.5964353999999 446.08807359999986 690.8638914999999 445.2736204999999 692.1281736999999 444.45251449999984 C 702.8381346 437.45996079999986 713.3284299999999 429.99475079999985 722.8588865999999 421.3648069999998 C 724.1941526999999 420.16186509999983 725.4719846999999 418.9015501999998 726.7751463999999 417.66357409999983 C 728.0333251 416.3806761999998 729.3291015 415.1063230999998 730.5397337999999 413.7831419999998 C 731.0867308999999 413.5711668999998 732.6331175999999 411.67663569999985 733.1733397999999 411.44995109999985 C 734.0415648999999 410.65026849999987 734.8713377999999 409.8233031999998 735.7141722999999 408.99890129999983 C 736.8889159999999 407.61791989999983 737.9197996999999 406.1408690999998 738.9807738999998 404.6743162999998 C 741.0103148999998 401.7110594999998 742.8791503999998 398.60009749999983 744.3503417999998 395.3642576999998 C 745.0537719999998 393.7190550999998 745.6989745999998 392.07995589999985 746.2194823999998 390.3890379999998 C 746.7604979999999 388.7293089999998 747.1601561999998 387.0037840999998 747.4617308999998 385.3099974999998 C 746.3051756999998 387.9579466999998 744.9475706999998 390.4936522999998 743.3638304999998 392.8659666999998 C 742.9232176999998 393.52136219999977 742.4685667999998 394.16863999999975 741.9995116999999 394.8068235999998 C 740.7918090999999 396.4721067999998 739.4760131999999 398.0679929999998 738.0824584999998 399.5908811999998 C 737.0093993999998 400.7718503999998 735.8958129999997 401.9191892999998 734.7603759999998 403.0393064999998 C 731.7582397999998 405.9144895999998 728.5794067999998 408.6049802999998 725.2542113999998 411.1395872999998 C 722.6884764999998 413.0978392999998 720.0372313999998 414.96990959999977 717.3101805999999 416.76110829999976 C 710.2747801999999 421.42687979999977 702.9284056999999 425.69390859999976 695.4212034999998 429.7691038999998 C 689.6264036999999 432.9143064999998 683.7343748999998 435.9448240999998 677.8056028999998 438.9265135999998 C 662.3906858999999 446.63867179999977 646.6942136999999 454.0296629999998 631.0074461999998 461.7040404999998 C 625.5734251999997 464.3733519999998 620.1387327999997 467.0550536999998 614.7175901999998 469.79602049999977 C 609.2939451999998 472.5567016999998 603.8801267999997 475.34484859999975 598.4959104999998 478.23950189999977 C 597.3309324999998 478.86730949999975 596.1671140999998 479.49780269999974 595.0045774999998 480.1318968999998 C 590.7896726999998 482.43170159999977 586.5863645999998 484.77160639999977 582.4091184999997 487.1962279999998 C 579.7419431999997 488.74645989999976 577.0824582999998 490.30584709999977 574.4381101999998 491.9140624999998 C 571.7910154999997 493.5261840999998 569.1560666999998 495.16241459999975 566.5380857999997 496.84197999999975 C 565.2269285999997 497.6758422999998 563.9207151999998 498.52752689999977 562.6204832999997 499.3933105999997 C 562.2516478999997 499.74420169999973 561.0391844999997 500.3376464999997 560.6721189999997 500.69079599999975 C 560.3042600999997 501.04461679999974 559.0958250999997 501.65814219999976 558.7298582999997 502.01428229999976 C 558.3643186999997 502.37005619999974 557.1590574999997 502.9854736999998 556.7954710999998 503.3435669999998 C 556.4309690999997 503.7025757999998 555.2306517999998 504.3405151999998 554.8682249999997 504.7019653999998 C 554.4810179999997 505.0889282999998 553.2598875999997 505.7586670999998 552.8745115999997 506.14782719999977 C 552.5147703999996 506.51116949999977 551.3268430999997 507.18115239999975 550.9688719999997 507.54650879999974 C 545.8919676999997 511.28387449999974 540.9142454999997 515.2286986999998 536.1408079999997 519.4725951999998 C 531.9056394999997 523.8169555999998 527.8460691999996 528.3543090999998 524.0447386999997 533.1137694999998 C 520.2442015999997 537.8769530999998 516.6906126999997 542.8781127999997 513.5228270999997 548.1051634999998 C 517.8508299999997 540.3389280999997 522.9566649999997 532.9989622999998 528.5250243999998 526.0351561999997 C 536.8391112999998 515.6505736999998 546.1656493999998 506.04797359999975 555.8935546999998 496.83959959999976 C 560.7717284999998 492.2467650999998 565.7291259999997 487.71966549999973 570.8139648999997 483.31762689999977 C 575.8741455999998 478.88903799999974 581.0001220999998 474.5185545999998 586.1934814999997 470.21307369999977 C 591.3599853999997 465.8758544999998 596.5914306999997 461.59698479999975 601.8419189999997 457.3272093999998 L 617.5856933999997 444.4570921999998 C 628.0684814999997 435.8273924999998 638.5471191999998 427.1132811999998 648.6406249999998 417.87676989999983 C 658.7015380999998 408.62750229999983 668.5209960999998 398.9238889999998 676.8898925999998 387.8968504999998 C 677.9367675999998 386.5234983999998 678.9094238999999 385.0833738999998 679.9184570999998 383.6835936999998 C 680.8570556999998 382.2215575999998 681.8543701999998 380.8124998999998 682.7360840999999 379.3151244999998 L 684.0721436999999 377.08496089999977 C 684.5131836999999 376.3398436999998 684.9045411999998 375.56005859999976 685.3217774999998 374.8009032999998 C 686.1833497999999 373.2987670999998 686.8614503999999 371.6857299999998 687.5947266999998 370.11920159999977 C 688.9216309999998 366.9078368999998 690.1018067999998 363.63531489999974 690.8077393999998 360.24346919999977 C 691.4638672999998 356.84686279999977 691.7847901999999 353.39910879999974 691.5451661999998 349.9999388999998 C 691.2022706999998 353.3929442999998 690.4632569999998 356.6864622999998 689.3508302999998 359.8375853999998 C 688.2606202999998 362.9979857999998 686.7535402999997 365.9842528999998 685.1196290999998 368.8705443999998 C 681.7032472999998 374.5804442999998 677.6538087999998 379.8817748999998 673.1049806999997 384.7689818999998 C 664.0863038999997 394.6085204999998 653.8988038999997 403.3952025999998 643.4930421999998 411.9328002999998 C 622.6166993999998 428.96093749999983 600.7243653999998 445.0255126999998 579.7890626999997 462.53698729999985 C 569.3350831999998 471.30578609999986 559.0389405999997 480.34155269999985 549.3066407999997 490.0464476999999 C 544.4481202999997 494.9027098999999 539.6904298999997 499.88122549999986 535.1677247999997 505.0888670999999 C 530.6237794999997 510.2755735999999 526.2929688999998 515.6715696999998 522.2723390999997 521.3121946999998 C 514.2573244999998 532.5784910999998 507.3680421999997 544.8733518999999 503.17126489999976 558.1553342999998 C 501.81829859999976 562.5341794999998 500.73230009999975 566.9976194999998 500.0000002999998 571.5062863999998 C 499.26770049999976 566.9976193999998 498.1817019999998 562.5341794999998 496.8287356999998 558.1553342999998 C 492.6319583999998 544.8733518999999 485.7426760999998 532.5784909999999 477.72766149999984 521.3121946999998 C 473.7070315999998 515.6715696999998 469.37622109999984 510.27557359999986 464.8322757999998 505.08886709999985 C 460.3095706999998 499.88122549999986 455.5518802999998 494.9027098999998 450.6933597999998 490.0464476999998 C 440.9610599999998 480.3415526999998 430.6649173999998 471.3057860999998 420.2109378999998 462.5369872999998 C 399.2756351999998 445.0255126999998 377.3833011999998 428.9609374999998 356.5069583999998 411.93280029999977 C 346.10119669999983 403.3952025999998 335.91369669999983 394.60852049999977 326.8950198999998 384.76898189999974 C 322.3461917999998 379.88177489999975 318.2967532999998 374.5804442999997 314.8803714999998 368.87054439999974 C 313.2464603999998 365.9842528999997 311.7393802999998 362.99798579999975 310.6491702999998 359.83758539999974 C 309.53674349999983 356.68646239999975 308.7977298999998 353.3929442999997 308.4548343999998 349.99993889999973 C 308.2152103999998 353.39910879999974 308.5361331999998 356.84686269999975 309.1922611999998 360.2434691999997 C 309.8981937999998 363.6353148999997 311.0783695999998 366.9078368999997 312.40527389999977 370.1192015999997 C 313.1385502999998 371.6857298999997 313.8166508999998 373.2987669999997 314.6782230999998 374.80090329999973 C 315.0954593999998 375.5600585999997 315.4868168999998 376.33984369999973 315.9278568999998 377.0849608999997 L 317.2639164999998 379.31512449999974 C 318.14563039999985 380.8124999999997 319.14294479999984 382.22155759999976 320.08154349999984 383.68359369999973 C 321.0905766999998 385.0833739999997 322.06323299999985 386.52349849999973 323.11010799999985 387.89685049999974 C 331.47900449999986 398.92388909999977 341.29846249999986 408.62750239999974 351.35937559999985 417.8767698999998 C 361.4528814999999 427.11328109999977 371.93151919999985 435.82739249999975 382.4143071999998 444.45709219999975 L 398.15808159999983 457.32720939999973 C 403.4085698999998 461.59698479999975 408.6400151999998 465.87585439999975 413.80651909999983 470.2130736999997 C 418.99987849999985 474.5185546999997 424.12585499999983 478.8890380999997 429.1860356999998 483.3176268999997 C 434.27087459999984 487.71966549999973 439.22827199999983 492.2467650999997 444.1064458999998 496.8395995999997 C 453.8343511999998 506.0479735999997 463.16088929999984 515.6505736999997 471.4749761999998 526.0351561999997 C 477.07550109999977 533.0391234999997 482.20770329999976 540.4238280999997 486.5513921999998 548.2399901999997 C 483.36328179999975 542.9622801999998 479.7812505999998 537.9142455999997 475.94751039999977 533.1085814999998 C 472.14862119999975 528.3510741999997 468.09167539999976 523.8154906999998 463.85925359999976 519.4725951999998 C 459.10498109999975 515.2508544999997 454.14813299999975 511.3266600999998 449.09259099999974 507.6092528999998 C 448.73779359999975 507.2468871999998 447.55310129999975 506.57995599999975 447.19659489999975 506.2196044999998 C 446.84106509999975 505.8603515999998 445.64990299999977 505.22039799999976 445.29278629999976 504.8629760999998 C 445.2391363999998 504.8092651999998 445.05987609999977 504.71392819999977 445.00616519999977 504.6602782999998 C 444.7057501999998 504.36065669999977 443.69335999999976 503.8258666999998 443.3915411999998 503.5280150999998 C 443.0323492999998 503.1734618999998 441.8314825999998 502.56152339999977 441.4702765999998 502.2092894999998 C 441.10870429999983 501.8566283999998 439.9046027999998 501.24658199999976 439.54119949999983 500.89617909999976 C 439.1785285999998 500.54656969999974 437.97045979999984 499.95654289999976 437.60601879999984 499.60906969999974 C 436.3144538999998 498.7499387999997 435.01702949999986 497.9049070999997 433.71460029999986 497.07757559999976 C 431.11389229999986 495.41094959999975 428.49633859999983 493.78735339999974 425.86669989999984 492.18774409999975 C 423.2400519999998 490.59240719999974 420.59838939999986 489.04559319999976 417.9490362999998 487.50799559999973 C 413.5446173999998 484.95507809999975 409.1108404999998 482.49737549999975 404.6645513999998 480.0819701999997 C 403.7682500999998 479.59551999999974 402.87115539999985 479.11114499999974 401.97338929999984 478.62835689999974 C 396.61914129999985 475.7524413999997 391.23510799999985 472.98309319999976 385.8409429999998 470.2415160999997 C 380.4536748999998 467.5231322999997 375.0524297999998 464.86431879999975 369.6511236999998 462.2185668999997 C 353.52551329999983 454.3481444999997 337.3832403999998 446.7867431999997 321.5378423999998 438.8768920999997 C 316.1603399999998 436.18139649999966 310.81292779999984 433.44464109999967 305.5402227999998 430.61791989999966 C 297.4102178999998 426.25512689999965 289.4553228999998 421.6788939999997 281.8629156999998 416.62829589999967 C 279.7527471999998 415.23706049999964 277.6879888999998 413.79669189999964 275.6730352999998 412.30468749999966 C 271.6895147999998 409.36059569999964 267.9045415999998 406.19915769999966 264.3678594999998 402.77215579999967 C 263.7859502999998 402.19061279999966 263.2099004999998 401.60168459999966 262.6422735999998 401.00451659999965 C 260.66168279999977 398.93701169999963 258.8009039999998 396.73736569999966 257.1384893999998 394.41558839999965 C 255.2785039999998 391.56671139999963 253.7504888999998 388.5088500999997 252.5383306999998 385.30999759999963 C 252.84008849999978 386.99963379999963 253.23938049999978 388.72094729999964 253.7795415999998 390.37646489999963 C 254.2998662999998 392.0715942999996 254.9454351999998 393.71490479999966 255.6497197999998 395.36425789999964 C 257.1208501999998 398.60009769999965 258.9897466999998 401.7110596999996 261.0192265999998 404.67431649999963 C 262.0807499999998 406.14123539999963 263.1123051999998 407.61853039999966 264.2876591999998 408.9998169999996 C 264.86547899999977 409.6965942999996 265.4254765999998 410.40570079999964 266.0236820999998 411.0869751999996 C 266.2905887999998 411.20922859999956 267.5605472999998 413.00238049999956 267.8287357999998 413.12255869999956 C 269.03021289999975 414.47229009999955 270.3225711999998 415.7510376999996 271.5734867999998 417.05950939999957 C 272.8796390999998 418.30950939999957 274.15692189999976 419.6071167999996 275.4963383999998 420.82354749999956 C 286.20709279999977 430.62078869999954 298.13818409999976 438.90289319999954 310.2480473999998 446.6557007999996 C 322.39001519999977 454.3764649999996 334.8293461999998 461.5090943999996 347.2673344999998 468.4808350999996 C 349.5551762999998 468.73052989999957 363.6497197999998 478.6083985999996 365.93365529999977 478.8216553999996 C 372.15606739999976 482.2372437999996 378.3613896999998 485.6476441999996 384.5136113999998 489.1019898999996 C 390.6871342999998 492.5201417999996 396.8051152999998 496.00408949999957 402.8697514999998 499.5341187999996 C 408.8826909999998 502.9885254999996 414.7927861999998 506.57611099999957 420.6426396999998 510.2048951999996 C 418.9122319999998 509.43347189999963 417.1785283999998 508.6733399999996 415.4414067999998 507.9240113999996 C 412.17285209999983 506.5176392999996 408.8881840999998 505.1904298999996 405.5990605999998 503.8663941999996 C 400.1271977999998 501.6685181999996 394.6268925999998 499.6194459999996 389.1182255999998 497.6269532999996 C 388.0090336999998 497.22583029999964 386.8992924999998 496.82714859999965 385.78918509999977 496.43029799999965 C 379.1636357999998 494.06591809999964 372.5122075999998 491.86291519999963 365.8596806999998 489.68145769999967 C 359.2097172999998 487.53741469999966 352.5509037999998 485.4786378999997 345.89685109999976 483.42968769999965 C 326.03039599999977 477.36920189999967 306.17297409999975 471.78204369999963 286.56872609999976 465.8209230999996 C 279.9089360999998 463.78997829999963 273.27569629999977 461.71514919999964 266.69995169999976 459.5479127999996 C 256.55694629999977 456.19427509999963 246.54626519999977 452.6216432999996 236.83081109999975 448.4876710999996 C 234.14007619999975 447.3485719999996 231.48370419999975 446.1580201999996 228.86541799999975 444.9108888999996 C 223.68463189999974 442.4509889999996 218.66107229999974 439.73797629999956 213.85528619999974 436.67376729999955 C 213.05639699999975 436.1552125999996 212.26281789999973 435.62677019999956 211.47644099999974 435.08764669999954 C 208.72912649999975 433.2320558999995 206.10583549999973 431.1824952999995 203.62780819999975 428.99365259999956 C 201.02026429999975 426.4469606999996 198.70324769999974 423.62475609999956 196.62176569999974 420.62005639999956 C 197.34472709999974 422.3069459999995 198.12359679999975 424.04498319999954 199.07312069999975 425.6517946999995 C 199.98181209999976 427.32342559999955 201.02801569999974 428.89172389999953 202.10711729999974 430.4849855999995 C 204.34350649999973 433.5648195999995 206.90106259999973 436.5143434999995 209.63317929999974 439.2294313999995 C 211.02301079999975 440.5967409999995 212.40789849999973 441.9382936999995 213.89715639999974 443.1987306999995 C 214.63555969999973 443.8331910999995 215.36413639999975 444.47155779999946 216.11950749999974 445.0890504999995 C 216.65338199999974 445.3335572999995 217.85711739999974 446.6896363999995 218.39349429999973 446.9299928999995 C 219.91479559999974 448.1320192999995 221.50213689999973 449.2805177999995 223.06543029999972 450.4354249999995 C 224.66870179999972 451.5356446999995 226.2506109999997 452.6907350999995 227.88250789999972 453.7501832999995 C 240.93518119999973 462.31774919999947 254.97790579999972 469.1783448999995 269.13671929999975 475.4345704999995 C 283.32714899999974 481.6397096999995 297.72723439999976 487.1908570999995 312.12036189999975 492.5045777999995 C 316.69604549999974 493.00396739999945 329.14135799999974 499.88958759999946 333.70922909999973 500.31604019999946 C 340.9035039999997 502.87750259999945 348.0827642999997 505.4193726999995 355.2207036999997 507.99096699999944 C 362.3743901999997 510.52172869999947 369.4843144999997 513.1192018999994 376.5534062999997 515.7506105999994 C 376.9103398999997 515.8810426999994 377.26196339999973 516.0201418999994 377.61846979999973 516.1513063999994 C 376.2698369999997 515.8218996999993 374.92102109999973 515.4942018999994 373.5718388999997 515.1719362999994 C 372.2497563999997 514.8560793999994 370.9274296999997 514.5432131999994 369.6050419999997 514.2322389999994 C 361.7080692999997 512.3794557999994 353.7893070999997 510.74273699999935 345.8784794999997 509.1214601999994 C 337.96575979999966 507.55163599999935 330.04943899999967 506.09289569999936 322.1425785999997 504.6408082999994 C 298.5352177999997 500.3903199999994 274.9626469999997 496.7773438999994 251.5996097999997 492.7649537999994 C 243.65759319999972 491.39855979999936 235.7384036999997 489.9857179999994 227.8596805999997 488.47784439999936 C 215.7036746999997 486.13342299999937 203.63726849999972 483.56445329999934 191.7987064999997 480.34698499999934 C 188.5274662999997 479.4600220999993 185.2794803999997 478.5193482999993 182.0578617999997 477.51715099999933 C 175.6798099999997 475.5413819999993 169.4176639999997 473.27673349999935 163.3427738999997 470.57531749999936 C 162.3267826999997 470.11975109999935 161.3156742999997 469.65185559999935 160.31060839999972 469.17077649999936 C 156.79657029999973 467.52716079999936 153.41076709999973 465.62756359999935 150.11712699999973 463.5716553999994 C 146.76202449999974 461.3272095999994 143.65600639999974 458.7407227999994 140.70526179999973 455.93011489999935 C 141.84930479999974 457.61419689999934 143.00775199999973 459.36901869999934 144.36669979999974 460.9270630999994 C 145.66375789999972 462.5752564999994 147.11065729999973 464.0686035999994 148.56457579999974 465.60571299999935 C 151.56616269999975 468.52954109999934 154.81243959999975 471.3175659999994 158.24713199999974 473.78454599999935 C 159.96521059999975 475.05224619999933 161.70355289999975 476.25811779999935 163.50659239999973 477.39758309999934 C 164.40557919999972 477.96978769999936 165.30279599999974 478.53741459999935 166.21527159999974 479.0911255999993 C 167.01611389999974 479.4578858999993 168.15374819999974 480.3768921999993 168.95831359999974 480.7374268999993 C 170.79937809999973 481.7918091999993 172.68176329999974 482.8099366999993 174.55737369999974 483.81134049999935 C 176.45776429999975 484.76177999999936 178.34429999999975 485.77429219999937 180.26873839999973 486.6768800999993 C 195.66326969999974 494.0146486999993 211.81762759999972 499.45373559999933 228.02539119999972 504.2134401999993 C 244.2642827999997 508.9029543999993 260.6250615999997 512.8726198999993 276.9733891999997 516.5282594999993 C 283.8368535999997 517.2773439999993 294.6329350999997 521.1707765999993 301.4848027999997 521.8104249999993 C 309.6510014999997 523.5177613999994 317.8040776999997 525.1911012999993 325.9277959999997 526.8798829999994 C 332.3964238999997 528.1868287999994 338.8395391999997 529.5424195999993 345.2695317999997 530.9118653999993 C 338.8117070999997 530.0646973999993 332.3503422999997 529.3082276999993 325.8972172999997 528.5614014999993 C 316.7218022999997 527.5659180999993 307.5479740999997 526.7072144999993 298.3883061999997 525.8519287999993 C 261.7388920999997 522.5813599999993 225.19812069999972 520.7507324999993 189.0194096999997 517.4078369999993 C 170.9414067999997 515.7041626999993 152.9395756999997 513.6260376999993 135.2502446999997 510.1233520999993 C 126.40307669999972 508.3813476999993 117.65771539999972 506.1965332999993 109.14477589999971 503.2539062999993 C 104.86401419999972 501.8222045999993 100.71569879999971 500.0726928999993 96.60644579999972 498.1497192999993 C 92.50378469999971 496.20745859999926 88.60876509999972 493.85662849999926 84.78869679999971 491.24017339999926 C 86.35388229999971 492.92144779999927 87.89196829999972 494.6930542999993 89.66027879999972 496.20239259999926 C 91.34570359999972 497.82708739999924 93.19323779999972 499.24542239999926 95.02197309999971 500.72650149999924 C 98.78881879999972 503.4943237999992 102.72375529999971 506.12084959999925 106.86108439999971 508.33966069999923 C 110.95422399999971 510.6761474999992 115.22888229999971 512.6205444999993 119.52307169999972 514.5448608999992 C 121.68396039999972 515.4515991999992 123.86132849999971 516.3394165999993 126.04931679999972 517.1872558999992 C 128.2468265999997 517.9879150999992 130.43798869999972 518.8579101999992 132.65490759999972 519.6035766999992 C 150.39135779999972 525.7115478999991 168.65734899999973 529.7291870999992 186.91406289999972 532.9923705999992 C 223.49035679999972 539.3402709999991 260.2033694999997 542.5454101999992 296.6348880999997 545.7688598999991 C 305.7489017999997 546.5249023999992 314.84277379999975 547.3493652999991 323.9207767999997 548.1835937999991 C 333.0041507999997 548.9594116999991 342.05322309999974 549.9016723999991 351.09057659999974 550.8146362999992 C 360.12695359999975 551.7348022999992 369.1309818999997 552.8047485999991 378.10546919999973 553.9415283999991 C 382.58789109999975 554.5317383999991 387.0615238999997 555.1725464999992 391.5239261999997 555.8385620999991 C 395.9875491999997 556.4975586999991 400.4442142999997 557.1958008999991 404.87084999999973 557.9970703999991 C 422.5899661999997 561.116577199999 440.13562049999973 565.099609499999 456.77893109999974 571.4732056999991 C 458.59875529999977 572.1646729999991 460.39947549999977 572.9007569999991 462.18530319999974 573.6688843999991 C 465.70391889999974 592.2885132999991 473.19427539999975 617.7327881999992 488.4929203999997 626.4320069999991 L 500.8804321 651.5 L 511.9840088 626.1643066 C 526.9643555 617.2140503 534.3325806 592.095581 537.8146973 573.6688842 C 539.6005249 572.9007568 541.4012452000001 572.1646728 543.2210694 571.4732055 C 559.8643799 565.0996093 577.4100342 561.1165771 595.1291505 557.9970701999999 C 599.5557862000001 557.1958007 604.0124513000001 556.4975585 608.4760743 555.8385619 C 612.9384766000001 555.1725462999999 617.4121095 554.5317382 621.8945313 553.9415282 C 630.8690186 552.8047484 639.8730469000001 551.7348021 648.9094239000001 550.8146361 C 657.9467774000001 549.9016722 666.9958497000001 548.9594115 676.0792237000001 548.1835936 C 685.1572266000001 547.3493651 694.2510987000001 546.5249022 703.3651124 545.7688597 C 739.796631 542.5454100000001 776.5096437000001 539.3402708 813.0859376000001 532.9923704 C 831.3426515000001 529.7291868 849.6086427000001 525.7115476 867.3450929 519.6035765 C 869.5620118 518.8579100000001 871.7531740000001 517.9879149000001 873.9506837 517.1872557 C 876.138672 516.3394163 878.3160401 515.451599 880.4769288 514.5448607000001 C 884.7711183 512.6205443000001 889.0457765 510.6761473000001 893.1389161 508.3396605000001 C 897.2762452 506.1208495000001 901.2111817 503.4943236000001 904.9780274 500.7265013000001 C 906.8067628 499.2454222000001 908.6542969 497.8270872000001 910.3397216999999 496.2023924000001 C 912.1080321999999 494.69305400000013 913.6461181999999 492.92144760000014 915.2113036999999 491.24017320000013 C 911.3912354 493.8566284 907.4962158 496.2074585 903.3935547 498.1497192 z" stroke-linecap="round" />
</g>
</g>
</g>
</svg>