<svg width="96" height="95" viewBox="0 0 96 95" fill="none" xmlns="http://www.w3.org/2000/svg">
    <path d="M9 94H2L17 75C29.1565 26.6236 42.4074 6.41933 94.5 1C96.6576 20.048 94.5709 28.6339 84.5 40C73.7683 40.2025 68.1973 41.3042 59 45L72 53C56.1686 66.8755 45.4159 71.7014 23.5 76L9 94Z" fill="#6C5DD4"/>
    <path d="M83.5 10.5L83 10M2 94H9L23.5 76C45.4159 71.7014 56.1686 66.8755 72 53L59 45C68.1973 41.3042 73.7683 40.2025 84.5 40C94.5709 28.6339 96.6576 20.048 94.5 1C42.4074 6.41933 29.1565 26.6236 17 75L2 94Z" stroke="#6C5DD4"/>
    <path d="M26 70C48.3525 43.4712 60.9223 29.7253 86 10C54.7569 26.0664 41.8702 41.377 26 70Z" fill="white" stroke="#6C5DD4" stroke-width="0.1"/>
</svg>
