<svg width="70" height="70" viewBox="0 0 70 70" fill="none" xmlns="http://www.w3.org/2000/svg">
    <circle cx="35" cy="35" r="31.5" fill="white" stroke="#F1EEFF" stroke-width="7"/>
    <path d="M17.5 33C16.3954 33 15.5 33.8954 15.5 35C15.5 36.1046 16.3954 37 17.5 37V33ZM54.6142 36.4142C55.3953 35.6332 55.3953 34.3668 54.6142 33.5858L41.8863 20.8579C41.1052 20.0768 39.8389 20.0768 39.0579 20.8579C38.2768 21.6389 38.2768 22.9052 39.0579 23.6863L50.3716 35L39.0579 46.3137C38.2768 47.0948 38.2768 48.3611 39.0579 49.1421C39.8389 49.9232 41.1052 49.9232 41.8863 49.1421L54.6142 36.4142ZM17.5 37H53.2V33H17.5V37Z" fill="#6C5DD4"/>
</svg>
