<svg width="55" height="55" viewBox="0 0 55 55" fill="none" xmlns="http://www.w3.org/2000/svg">
    <rect width="55" height="55" rx="15" fill="#F1EEFF"/>
    <path d="M25.0979 13.8541C25.6966 12.0115 28.3034 12.0115 28.9021 13.8541L31.0413 20.4377C31.309 21.2617 32.0769 21.8197 32.9434 21.8197H39.8658C41.8032 21.8197 42.6088 24.2989 41.0413 25.4377L35.441 29.5066C34.74 30.0159 34.4467 30.9186 34.7145 31.7426L36.8536 38.3262C37.4523 40.1689 35.3433 41.7011 33.7759 40.5623L28.1756 36.4934C27.4746 35.9841 26.5254 35.9841 25.8244 36.4934L20.2241 40.5623C18.6567 41.7011 16.5477 40.1689 17.1464 38.3262L19.2855 31.7426C19.5533 30.9186 19.26 30.0159 18.559 29.5066L12.9587 25.4377C11.3912 24.2989 12.1968 21.8197 14.1342 21.8197H21.0566C21.9231 21.8197 22.691 21.2617 22.9587 20.4377L25.0979 13.8541Z" fill="#6C5DD4"/>
</svg>
