<svg width="55" height="55" viewBox="0 0 55 55" fill="none" xmlns="http://www.w3.org/2000/svg">
<rect width="55" height="55" rx="15" fill="#F1EEFF"/>
<path d="M16.1945 17.9744L26.6945 13.3544C27.2078 13.1286 27.7922 13.1286 28.3055 13.3544L38.8055 17.9744C39.5314 18.2938 40 19.012 40 19.805V29.5959C40 30.1706 39.7527 30.7176 39.3213 31.0973L28.8213 40.3373C28.0658 41.0021 26.9342 41.0021 26.1787 40.3373L15.6787 31.0973C15.2473 30.7176 15 30.1706 15 29.5959V19.805C15 19.012 15.4686 18.2938 16.1945 17.9744Z" fill="#6C5DD4" stroke="#6C5DD3"/>
<path d="M22.8536 27.6464L24.0923 26.4077C24.3075 26.1925 24.6633 26.2178 24.8459 26.4612L25.6351 27.5135C25.8241 27.7655 26.1961 27.7821 26.4068 27.548L30.1941 23.3399C30.3673 23.1474 30.6587 23.119 30.8658 23.2743L32.0212 24.1409C32.2706 24.3279 32.2899 24.6951 32.0614 24.9073L25.8531 30.6721C25.656 30.8551 25.3495 30.8495 25.1593 30.6593L22.8536 28.3536C22.6583 28.1583 22.6583 27.8417 22.8536 27.6464Z" fill="white" stroke="white"/>
</svg>
